<?xml version="1.0" encoding="UTF-8"?>
<!DOCTYPE svg PUBLIC "-//W3C//DTD SVG 1.1//EN" "http://www.w3.org/Graphics/SVG/1.1/DTD/svg11.dtd">
<svg xmlns="http://www.w3.org/2000/svg" version="1.1" width="642px" height="904px" style="shape-rendering:geometricPrecision; text-rendering:geometricPrecision; image-rendering:optimizeQuality; fill-rule:evenodd; clip-rule:evenodd" xmlns:xlink="http://www.w3.org/1999/xlink">
<g><path style="opacity:0.102" fill="#060606" d="M 308.5,13.5 C 320.205,12.6189 330.872,15.4522 340.5,22C 346.033,27.1983 351.2,32.6983 356,38.5C 361.473,49.1094 366.639,59.776 371.5,70.5C 383.996,63.6123 397.329,59.4456 411.5,58C 438.658,54.8276 456.158,66.3276 464,92.5C 466.222,113.392 462.055,132.892 451.5,151C 462.759,155.756 473.759,161.089 484.5,167C 508.892,184.848 514.392,207.348 501,234.5C 487.514,249.501 471.014,259.834 451.5,265.5C 455.277,274.054 458.777,282.72 462,291.5C 465.105,305.214 465.105,318.88 462,332.5C 452.854,351.75 437.521,361.083 416,360.5C 400.185,359.506 385.352,355.173 371.5,347.5C 367.306,356.89 362.806,366.224 358,375.5C 353.504,381.69 348.67,387.523 343.5,393C 330.628,402.464 316.294,405.464 300.5,402C 296.111,400.971 292.111,399.138 288.5,396.5C 280.981,400.074 276.315,397.741 274.5,389.5C 275.5,388.667 276.5,387.833 277.5,387C 274.639,384.106 272.139,380.939 270,377.5C 264.955,367.41 259.955,357.41 255,347.5C 246.664,351.084 238.164,354.25 229.5,357C 217.21,359.744 204.877,360.078 192.5,358C 172.461,350.456 162.461,335.956 162.5,314.5C 162.45,297.15 166.784,280.984 175.5,266C 162.904,261.138 150.904,255.138 139.5,248C 116.328,229.393 112.162,207.227 127,181.5C 132.239,175.59 138.072,170.423 144.5,166C 154.8,160.682 165.134,155.682 175.5,151C 171.662,143.819 168.495,136.319 166,128.5C 162.285,114.188 161.951,99.8551 165,85.5C 172.988,67.8451 186.654,58.5117 206,57.5C 223.554,57.8468 240.054,62.1802 255.5,70.5C 260.838,58.1587 267.005,46.1587 274,34.5C 282.937,22.9627 294.437,15.9627 308.5,13.5 Z M 331.5,251.5 C 337.171,254.336 342.838,257.169 348.5,260C 350.609,261.141 352.442,262.641 354,264.5C 357.547,281.016 358.714,297.683 357.5,314.5C 344.341,304.163 333.508,291.83 325,277.5C 324.333,275.5 324.333,273.5 325,271.5C 328.037,265.098 330.204,258.432 331.5,251.5 Z M 294.5,251.5 C 297.378,259.29 300.378,267.123 303.5,275C 294.526,289.978 283.36,303.145 270,314.5C 268.546,298.062 269.546,281.728 273,265.5C 273.465,264.069 274.299,262.903 275.5,262C 282.185,258.994 288.519,255.494 294.5,251.5 Z M 316.5,230.5 C 316.5,231.833 316.5,233.167 316.5,234.5C 316.486,240.581 315.819,246.581 314.5,252.5C 313.833,252.5 313.167,252.5 312.5,252.5C 311.181,246.581 310.514,240.581 310.5,234.5C 310.5,233.167 310.5,231.833 310.5,230.5C 312.5,225.167 314.5,225.167 316.5,230.5 Z M 288.5,238.5 C 286.973,238.427 285.973,239.094 285.5,240.5C 282.167,241.833 281.167,240.833 282.5,237.5C 283.906,237.027 284.573,236.027 284.5,234.5C 287.964,231.538 291.297,228.371 294.5,225C 296.217,223.441 298.217,222.608 300.5,222.5C 300.392,224.783 299.559,226.783 298,228.5C 294.629,231.703 291.462,235.036 288.5,238.5 Z M 342.5,233.5 C 342.75,235.674 343.75,237.341 345.5,238.5C 345.5,238.833 345.5,239.167 345.5,239.5C 337.027,236.367 330.693,230.7 326.5,222.5C 326.833,222.167 327.167,221.833 327.5,221.5C 333.096,224.764 338.096,228.764 342.5,233.5 Z M 377.5,219.5 C 379.655,219.372 381.655,219.872 383.5,221C 397.205,229.537 409.205,240.037 419.5,252.5C 416.541,253.351 413.541,254.018 410.5,254.5C 396.764,253.06 383.097,251.227 369.5,249C 365.041,241.916 360.708,234.75 356.5,227.5C 363.89,225.581 370.89,222.914 377.5,219.5 Z M 246.5,219.5 C 254.648,221.236 262.648,223.569 270.5,226.5C 266.546,234.245 262.212,241.745 257.5,249C 255.285,250.044 252.952,250.71 250.5,251C 239.144,252.017 227.811,253.184 216.5,254.5C 213.459,254.018 210.459,253.351 207.5,252.5C 219.053,239.599 232.053,228.599 246.5,219.5 Z M 291.5,212.5 C 290.167,212.5 288.833,212.5 287.5,212.5C 282.482,212.387 277.482,212.053 272.5,211.5C 271.571,210.685 270.571,209.852 269.5,209C 277.737,206.245 286.07,205.912 294.5,208C 295.451,208.718 295.617,209.551 295,210.5C 293.698,211.085 292.531,211.751 291.5,212.5 Z M 335.5,205.5 C 336.833,205.5 338.167,205.5 339.5,205.5C 344.518,205.613 349.518,205.947 354.5,206.5C 355.209,207.404 356.209,207.737 357.5,207.5C 357.119,208.931 356.119,209.764 354.5,210C 349.552,211.05 344.552,211.55 339.5,211.5C 337.139,211.326 334.806,210.993 332.5,210.5C 331.697,209.577 331.53,208.577 332,207.5C 333.302,206.915 334.469,206.249 335.5,205.5 Z M 344.5,180.5 C 339.488,186.676 333.655,192.01 327,196.5C 326.5,196 326,195.5 325.5,195C 329.292,189.375 333.625,184.208 338.5,179.5C 340.027,179.573 341.027,178.906 341.5,177.5C 344.833,176.167 345.833,177.167 344.5,180.5 Z M 282.5,176.5 C 284.05,177.441 285.716,178.107 287.5,178.5C 291.438,181.935 295.271,185.602 299,189.5C 300.59,191.65 301.257,193.983 301,196.5C 294.763,193.096 289.263,188.762 284.5,183.5C 284.672,182.508 284.338,181.842 283.5,181.5C 282.962,179.883 282.629,178.216 282.5,176.5 Z M 182.5,167.5 C 183.873,167.343 185.207,167.51 186.5,168C 198.792,183.796 213.126,197.296 229.5,208.5C 215.566,218.6 203.066,230.266 192,243.5C 189.906,246.103 187.406,248.103 184.5,249.5C 169.831,246.166 156.831,239.666 145.5,230C 131.229,213.467 132.563,198.134 149.5,184C 153.11,182.056 156.443,179.723 159.5,177C 167.226,173.71 174.893,170.543 182.5,167.5 Z M 441.5,166.5 C 454.699,169.933 466.699,175.767 477.5,184C 493.244,198.173 494.577,213.506 481.5,230C 470.264,239.535 457.43,246.035 443,249.5C 437.742,246.909 433.742,242.909 431,237.5C 420.633,226.76 409.467,217.093 397.5,208.5C 414.44,196.894 429.107,182.894 441.5,166.5 Z M 312.5,165.5 C 313.167,165.5 313.833,165.5 314.5,165.5C 315.947,172.078 316.613,178.745 316.5,185.5C 316.5,186.167 316.5,186.833 316.5,187.5C 315.521,188.765 314.521,190.099 313.5,191.5C 312.416,190.335 311.583,189.002 311,187.5C 310.302,180.08 310.802,172.747 312.5,165.5 Z M 211.5,163.5 C 226.232,163.862 240.898,165.028 255.5,167C 258,168.167 259.833,170 261,172.5C 263.912,178.658 267.079,184.658 270.5,190.5C 262.839,192.749 255.339,195.415 248,198.5C 231.969,190.544 218.469,179.378 207.5,165C 209.058,164.79 210.391,164.29 211.5,163.5 Z M 403.5,163.5 C 409.232,163.283 414.899,163.783 420.5,165C 409.061,178.944 395.394,190.111 379.5,198.5C 371.771,195.136 363.771,192.636 355.5,191C 360.085,183.831 364.419,176.498 368.5,169C 372.332,167.375 376.332,166.375 380.5,166C 388.328,165.256 395.995,164.423 403.5,163.5 Z M 269.5,102.5 C 282.988,113.49 294.155,126.49 303,141.5C 300.591,149.352 298.425,157.352 296.5,165.5C 290.23,162.702 283.896,159.868 277.5,157C 273.466,154.239 271.299,150.406 271,145.5C 268.88,131.178 268.38,116.845 269.5,102.5 Z M 355.5,103.5 C 356.75,103.577 357.583,104.244 358,105.5C 358.417,121.327 357.084,136.994 354,152.5C 353.535,153.931 352.701,155.097 351.5,156C 344.888,158.639 338.554,161.806 332.5,165.5C 330.016,158.241 327.016,151.075 323.5,144C 331.367,128.298 342.034,114.798 355.5,103.5 Z M 411.5,75.5 C 434.159,72.2902 445.826,81.9569 446.5,104.5C 445.671,119.489 441.504,133.489 434,146.5C 425.572,147.421 417.072,147.421 408.5,146.5C 396.768,146.885 385.101,147.885 373.5,149.5C 375.413,129.522 375.913,109.522 375,89.5C 386.136,81.9578 398.302,77.2912 411.5,75.5 Z M 202.5,75.5 C 220.523,74.9348 237.023,79.6014 252,89.5C 250.088,109.752 250.588,129.752 253.5,149.5C 235.773,146.448 217.94,145.781 200,147.5C 197.329,147.726 194.996,147.059 193,145.5C 184.286,130.644 180.286,114.644 181,97.5C 183.041,84.9606 190.208,77.6272 202.5,75.5 Z M 309.5,30.5 C 321.276,30.4711 330.776,35.1377 338,44.5C 342.125,49.3014 345.458,54.6347 348,60.5C 350.111,67.5035 352.611,74.3368 355.5,81C 339.582,93.7497 325.582,108.25 313.5,124.5C 308.221,117.381 302.721,110.381 297,103.5C 288.405,95.9003 280.238,88.067 272.5,80C 275.746,63.5033 283.412,49.5033 295.5,38C 299.815,34.6782 304.482,32.1782 309.5,30.5 Z M 250.5,267.5 C 251.5,267.5 252.5,267.5 253.5,267.5C 250.135,287.456 249.635,307.456 252,327.5C 235.067,338.686 216.567,342.853 196.5,340C 184.956,334.611 179.623,325.444 180.5,312.5C 181.54,297.88 185.707,284.213 193,271.5C 194.822,269.955 196.989,269.288 199.5,269.5C 216.733,271.107 233.733,270.44 250.5,267.5 Z M 373.5,267.5 C 380.757,268.54 388.09,269.373 395.5,270C 408.087,270.297 420.587,270.464 433,270.5C 440.915,283.244 445.415,297.078 446.5,312C 445.619,335.199 433.619,344.866 410.5,341C 397.628,339.144 385.794,334.644 375,327.5C 375.944,307.484 375.444,287.484 373.5,267.5 Z M 312.5,293.5 C 314.371,293.859 315.871,294.859 317,296.5C 320.333,301.167 323.667,305.833 327,310.5C 335.928,319.765 345.095,328.598 354.5,337C 350.528,356.633 340.528,372.3 324.5,384C 311.744,388.751 300.911,385.918 292,375.5C 282.476,364.287 275.976,351.453 272.5,337C 279.603,330.57 286.77,324.07 294,317.5C 300.765,309.909 306.931,301.909 312.5,293.5 Z"/></g>
<g><path style="opacity:0.999" fill="#303030" d="M 304.5,15.5 C 317.397,13.4746 329.064,16.3079 339.5,24C 354.091,37.5133 364.091,53.8467 369.5,73C 370.833,73.6667 372.167,73.6667 373.5,73C 393.028,60.9719 414.028,57.3052 436.5,62C 454.226,70.3926 462.893,84.3926 462.5,104C 462.29,119.678 458.123,134.178 450,147.5C 449.009,149.447 448.675,151.447 449,153.5C 469.543,158.601 486.543,169.267 500,185.5C 508.942,201.699 508.609,217.699 499,233.5C 485.596,248.871 468.93,258.871 449,263.5C 448.333,264.5 448.333,265.5 449,266.5C 454.101,276.039 458.101,286.039 461,296.5C 467.336,319.443 461.17,337.943 442.5,352C 437.605,355.076 432.272,356.743 426.5,357C 416.058,357.961 405.725,357.295 395.5,355C 387.338,352.057 379.338,348.724 371.5,345C 370.5,344.333 369.5,344.333 368.5,345C 363.646,363.155 354.646,378.822 341.5,392C 316.993,407.393 295.159,404.226 276,382.5C 267.191,371.215 261.358,358.548 258.5,344.5C 255.784,344.678 253.117,345.178 250.5,346C 233.856,354.529 216.189,358.196 197.5,357C 171.541,348.611 160.707,330.778 165,303.5C 166,298.5 167,293.5 168,288.5C 171.519,280.135 175.019,271.801 178.5,263.5C 158.573,258.746 141.74,248.746 128,233.5C 114.628,209.906 118.462,189.406 139.5,172C 150.272,163.848 162.272,158.181 175.5,155C 176.99,154.255 177.99,153.088 178.5,151.5C 174.329,143.83 170.829,135.83 168,127.5C 165.8,114.576 165.134,101.576 166,88.5C 173.657,70.0118 187.49,60.3452 207.5,59.5C 224.761,60.8989 241.095,65.5655 256.5,73.5C 257.647,73.1822 258.481,72.5156 259,71.5C 260.34,64.4788 262.674,57.8122 266,51.5C 274.246,34.4148 287.08,22.4148 304.5,15.5 Z M 331.5,251.5 C 330.204,258.432 328.037,265.098 325,271.5C 324.333,273.5 324.333,275.5 325,277.5C 333.508,291.83 344.341,304.163 357.5,314.5C 358.714,297.683 357.547,281.016 354,264.5C 352.442,262.641 350.609,261.141 348.5,260C 342.838,257.169 337.171,254.336 331.5,251.5 Z M 294.5,251.5 C 288.519,255.494 282.185,258.994 275.5,262C 274.299,262.903 273.465,264.069 273,265.5C 269.546,281.728 268.546,298.062 270,314.5C 283.36,303.145 294.526,289.978 303.5,275C 300.378,267.123 297.378,259.29 294.5,251.5 Z M 316.5,230.5 C 316.5,231.833 316.5,233.167 316.5,234.5C 316.486,240.581 315.819,246.581 314.5,252.5C 313.833,252.5 313.167,252.5 312.5,252.5C 311.181,246.581 310.514,240.581 310.5,234.5C 310.5,233.167 310.5,231.833 310.5,230.5C 312.5,225.167 314.5,225.167 316.5,230.5 Z M 288.5,238.5 C 286.973,238.427 285.973,239.094 285.5,240.5C 282.167,241.833 281.167,240.833 282.5,237.5C 283.906,237.027 284.573,236.027 284.5,234.5C 287.964,231.538 291.297,228.371 294.5,225C 296.217,223.441 298.217,222.608 300.5,222.5C 300.392,224.783 299.559,226.783 298,228.5C 294.629,231.703 291.462,235.036 288.5,238.5 Z M 342.5,233.5 C 342.75,235.674 343.75,237.341 345.5,238.5C 345.5,238.833 345.5,239.167 345.5,239.5C 337.027,236.367 330.693,230.7 326.5,222.5C 326.833,222.167 327.167,221.833 327.5,221.5C 333.096,224.764 338.096,228.764 342.5,233.5 Z M 377.5,219.5 C 370.89,222.914 363.89,225.581 356.5,227.5C 360.708,234.75 365.041,241.916 369.5,249C 383.097,251.227 396.764,253.06 410.5,254.5C 413.541,254.018 416.541,253.351 419.5,252.5C 409.205,240.037 397.205,229.537 383.5,221C 381.655,219.872 379.655,219.372 377.5,219.5 Z M 246.5,219.5 C 232.053,228.599 219.053,239.599 207.5,252.5C 210.459,253.351 213.459,254.018 216.5,254.5C 227.811,253.184 239.144,252.017 250.5,251C 252.952,250.71 255.285,250.044 257.5,249C 262.212,241.745 266.546,234.245 270.5,226.5C 262.648,223.569 254.648,221.236 246.5,219.5 Z M 291.5,212.5 C 290.167,212.5 288.833,212.5 287.5,212.5C 282.482,212.387 277.482,212.053 272.5,211.5C 271.571,210.685 270.571,209.852 269.5,209C 277.737,206.245 286.07,205.912 294.5,208C 295.451,208.718 295.617,209.551 295,210.5C 293.698,211.085 292.531,211.751 291.5,212.5 Z M 335.5,205.5 C 336.833,205.5 338.167,205.5 339.5,205.5C 344.518,205.613 349.518,205.947 354.5,206.5C 355.209,207.404 356.209,207.737 357.5,207.5C 357.119,208.931 356.119,209.764 354.5,210C 349.552,211.05 344.552,211.55 339.5,211.5C 337.139,211.326 334.806,210.993 332.5,210.5C 331.697,209.577 331.53,208.577 332,207.5C 333.302,206.915 334.469,206.249 335.5,205.5 Z M 344.5,180.5 C 339.488,186.676 333.655,192.01 327,196.5C 326.5,196 326,195.5 325.5,195C 329.292,189.375 333.625,184.208 338.5,179.5C 340.027,179.573 341.027,178.906 341.5,177.5C 344.833,176.167 345.833,177.167 344.5,180.5 Z M 282.5,176.5 C 284.05,177.441 285.716,178.107 287.5,178.5C 291.438,181.935 295.271,185.602 299,189.5C 300.59,191.65 301.257,193.983 301,196.5C 294.763,193.096 289.263,188.762 284.5,183.5C 284.672,182.508 284.338,181.842 283.5,181.5C 282.962,179.883 282.629,178.216 282.5,176.5 Z M 182.5,167.5 C 174.893,170.543 167.226,173.71 159.5,177C 156.443,179.723 153.11,182.056 149.5,184C 132.563,198.134 131.229,213.467 145.5,230C 156.831,239.666 169.831,246.166 184.5,249.5C 187.406,248.103 189.906,246.103 192,243.5C 203.066,230.266 215.566,218.6 229.5,208.5C 213.126,197.296 198.792,183.796 186.5,168C 185.207,167.51 183.873,167.343 182.5,167.5 Z M 441.5,166.5 C 429.107,182.894 414.44,196.894 397.5,208.5C 409.467,217.093 420.633,226.76 431,237.5C 433.742,242.909 437.742,246.909 443,249.5C 457.43,246.035 470.264,239.535 481.5,230C 494.577,213.506 493.244,198.173 477.5,184C 466.699,175.767 454.699,169.933 441.5,166.5 Z M 312.5,165.5 C 313.167,165.5 313.833,165.5 314.5,165.5C 315.947,172.078 316.613,178.745 316.5,185.5C 316.5,186.167 316.5,186.833 316.5,187.5C 315.521,188.765 314.521,190.099 313.5,191.5C 312.416,190.335 311.583,189.002 311,187.5C 310.302,180.08 310.802,172.747 312.5,165.5 Z M 211.5,163.5 C 210.391,164.29 209.058,164.79 207.5,165C 218.469,179.378 231.969,190.544 248,198.5C 255.339,195.415 262.839,192.749 270.5,190.5C 267.079,184.658 263.912,178.658 261,172.5C 259.833,170 258,168.167 255.5,167C 240.898,165.028 226.232,163.862 211.5,163.5 Z M 403.5,163.5 C 395.995,164.423 388.328,165.256 380.5,166C 376.332,166.375 372.332,167.375 368.5,169C 364.419,176.498 360.085,183.831 355.5,191C 363.771,192.636 371.771,195.136 379.5,198.5C 395.394,190.111 409.061,178.944 420.5,165C 414.899,163.783 409.232,163.283 403.5,163.5 Z M 269.5,102.5 C 268.38,116.845 268.88,131.178 271,145.5C 271.299,150.406 273.466,154.239 277.5,157C 283.896,159.868 290.23,162.702 296.5,165.5C 298.425,157.352 300.591,149.352 303,141.5C 294.155,126.49 282.988,113.49 269.5,102.5 Z M 355.5,103.5 C 342.034,114.798 331.367,128.298 323.5,144C 327.016,151.075 330.016,158.241 332.5,165.5C 338.554,161.806 344.888,158.639 351.5,156C 352.701,155.097 353.535,153.931 354,152.5C 357.084,136.994 358.417,121.327 358,105.5C 357.583,104.244 356.75,103.577 355.5,103.5 Z M 411.5,75.5 C 398.302,77.2912 386.136,81.9578 375,89.5C 375.913,109.522 375.413,129.522 373.5,149.5C 385.101,147.885 396.768,146.885 408.5,146.5C 417.072,147.421 425.572,147.421 434,146.5C 441.504,133.489 445.671,119.489 446.5,104.5C 445.826,81.9569 434.159,72.2902 411.5,75.5 Z M 202.5,75.5 C 190.208,77.6272 183.041,84.9606 181,97.5C 180.286,114.644 184.286,130.644 193,145.5C 194.996,147.059 197.329,147.726 200,147.5C 217.94,145.781 235.773,146.448 253.5,149.5C 250.588,129.752 250.088,109.752 252,89.5C 237.023,79.6014 220.523,74.9348 202.5,75.5 Z M 309.5,30.5 C 304.482,32.1782 299.815,34.6782 295.5,38C 283.412,49.5033 275.746,63.5033 272.5,80C 280.238,88.067 288.405,95.9003 297,103.5C 302.721,110.381 308.221,117.381 313.5,124.5C 325.582,108.25 339.582,93.7497 355.5,81C 352.611,74.3368 350.111,67.5035 348,60.5C 345.458,54.6347 342.125,49.3014 338,44.5C 330.776,35.1377 321.276,30.4711 309.5,30.5 Z M 250.5,267.5 C 233.733,270.44 216.733,271.107 199.5,269.5C 196.989,269.288 194.822,269.955 193,271.5C 185.707,284.213 181.54,297.88 180.5,312.5C 179.623,325.444 184.956,334.611 196.5,340C 216.567,342.853 235.067,338.686 252,327.5C 249.635,307.456 250.135,287.456 253.5,267.5C 252.5,267.5 251.5,267.5 250.5,267.5 Z M 373.5,267.5 C 375.444,287.484 375.944,307.484 375,327.5C 385.794,334.644 397.628,339.144 410.5,341C 433.619,344.866 445.619,335.199 446.5,312C 445.415,297.078 440.915,283.244 433,270.5C 420.587,270.464 408.087,270.297 395.5,270C 388.09,269.373 380.757,268.54 373.5,267.5 Z M 312.5,293.5 C 306.931,301.909 300.765,309.909 294,317.5C 286.77,324.07 279.603,330.57 272.5,337C 275.976,351.453 282.476,364.287 292,375.5C 300.911,385.918 311.744,388.751 324.5,384C 340.528,372.3 350.528,356.633 354.5,337C 345.095,328.598 335.928,319.765 327,310.5C 323.667,305.833 320.333,301.167 317,296.5C 315.871,294.859 314.371,293.859 312.5,293.5 Z"/></g>
<g><path style="opacity:0.096" fill="#060606" d="M 329.5,248.5 C 338.522,253.096 347.355,258.096 356,263.5C 359.911,281.344 361.077,299.344 359.5,317.5C 343.348,307.507 331.181,293.84 323,276.5C 325.155,267.21 327.322,257.877 329.5,248.5 Z M 331.5,251.5 C 330.204,258.432 328.037,265.098 325,271.5C 324.333,273.5 324.333,275.5 325,277.5C 333.508,291.83 344.341,304.163 357.5,314.5C 358.714,297.683 357.547,281.016 354,264.5C 352.442,262.641 350.609,261.141 348.5,260C 342.838,257.169 337.171,254.336 331.5,251.5 Z"/></g>
<g><path style="opacity:0.104" fill="#050505" d="M 293.5,249.5 C 295.451,249.227 296.951,249.893 298,251.5C 300.002,258.178 302.002,264.845 304,271.5C 303.822,276.887 302.156,281.887 299,286.5C 290.688,298.646 280.521,308.979 268.5,317.5C 266.68,299.692 267.513,282.025 271,264.5C 271.785,262.714 272.951,261.214 274.5,260C 281.508,257.501 287.841,254.001 293.5,249.5 Z M 294.5,251.5 C 288.519,255.494 282.185,258.994 275.5,262C 274.299,262.903 273.465,264.069 273,265.5C 269.546,281.728 268.546,298.062 270,314.5C 283.36,303.145 294.526,289.978 303.5,275C 300.378,267.123 297.378,259.29 294.5,251.5 Z"/></g>
<g><path style="opacity:0.584" fill="#0a0a0a" d="M 288.5,238.5 C 288.027,239.906 287.027,240.573 285.5,240.5C 285.973,239.094 286.973,238.427 288.5,238.5 Z"/></g>
<g><path style="opacity:0.055" fill="#060606" d="M 342.5,233.5 C 344.25,234.659 345.25,236.326 345.5,238.5C 343.75,237.341 342.75,235.674 342.5,233.5 Z"/></g>
<g><path style="opacity:0.032" fill="#060606" d="M 316.5,234.5 C 317.559,240.029 317.393,245.695 316,251.5C 315.617,252.056 315.117,252.389 314.5,252.5C 315.819,246.581 316.486,240.581 316.5,234.5 Z"/></g>
<g><path style="opacity:0.032" fill="#060606" d="M 310.5,234.5 C 310.514,240.581 311.181,246.581 312.5,252.5C 311.883,252.389 311.383,252.056 311,251.5C 309.607,245.695 309.441,240.029 310.5,234.5 Z"/></g>
<g><path style="opacity:0.071" fill="#040404" d="M 284.5,234.5 C 284.573,236.027 283.906,237.027 282.5,237.5C 282.427,235.973 283.094,234.973 284.5,234.5 Z"/></g>
<g><path style="opacity:0.043" fill="#0f0f0f" d="M 316.5,230.5 C 314.5,225.167 312.5,225.167 310.5,230.5C 310.022,227.722 311.022,225.722 313.5,224.5C 315.978,225.722 316.978,227.722 316.5,230.5 Z"/></g>
<g><path style="opacity:0.12" fill="#080808" d="M 288.5,238.5 C 291.462,235.036 294.629,231.703 298,228.5C 299.559,226.783 300.392,224.783 300.5,222.5C 298.217,222.608 296.217,223.441 294.5,225C 291.297,228.371 287.964,231.538 284.5,234.5C 287.744,226.926 293.41,222.259 301.5,220.5C 301.938,223.893 301.105,226.893 299,229.5C 295.902,233.107 292.402,236.107 288.5,238.5 Z"/></g>
<g><path style="opacity:0.102" fill="#060606" d="M 342.5,233.5 C 338.096,228.764 333.096,224.764 327.5,221.5C 327.167,221.833 326.833,222.167 326.5,222.5C 330.693,230.7 337.027,236.367 345.5,239.5C 344.399,240.598 343.066,240.765 341.5,240C 336.309,236.986 331.809,233.153 328,228.5C 326.293,226.091 325.46,223.425 325.5,220.5C 328.425,220.46 331.091,221.293 333.5,223C 337.453,225.779 340.453,229.279 342.5,233.5 Z"/></g>
<g><path style="opacity:0.103" fill="#060606" d="M 377.5,217.5 C 386.503,220.169 394.503,224.669 401.5,231C 408.279,237.779 415.113,244.613 422,251.5C 422.667,252.5 422.667,253.5 422,254.5C 403.608,256.349 385.441,254.849 367.5,250C 363.211,241.919 358.544,234.085 353.5,226.5C 353.709,225.914 354.043,225.414 354.5,225C 362.451,223.006 370.118,220.506 377.5,217.5 Z M 377.5,219.5 C 370.89,222.914 363.89,225.581 356.5,227.5C 360.708,234.75 365.041,241.916 369.5,249C 383.097,251.227 396.764,253.06 410.5,254.5C 413.541,254.018 416.541,253.351 419.5,252.5C 409.205,240.037 397.205,229.537 383.5,221C 381.655,219.872 379.655,219.372 377.5,219.5 Z"/></g>
<g><path style="opacity:0.096" fill="#070707" d="M 246.5,217.5 C 254.15,219.397 261.817,221.23 269.5,223C 271.002,223.583 272.335,224.416 273.5,225.5C 268.707,233.585 264.04,241.752 259.5,250C 241.285,255.318 222.785,256.818 204,254.5C 215.167,238.84 229.334,226.507 246.5,217.5 Z M 246.5,219.5 C 232.053,228.599 219.053,239.599 207.5,252.5C 210.459,253.351 213.459,254.018 216.5,254.5C 227.811,253.184 239.144,252.017 250.5,251C 252.952,250.71 255.285,250.044 257.5,249C 262.212,241.745 266.546,234.245 270.5,226.5C 262.648,223.569 254.648,221.236 246.5,219.5 Z"/></g>
<g><path style="opacity:0.044" fill="#020202" d="M 272.5,211.5 C 277.482,212.053 282.482,212.387 287.5,212.5C 282.421,213.826 277.421,213.493 272.5,211.5 Z"/></g>
<g><path style="opacity:0.048" fill="#010101" d="M 357.5,207.5 C 358.404,208.209 358.737,209.209 358.5,210.5C 352.075,212.25 345.742,212.584 339.5,211.5C 344.552,211.55 349.552,211.05 354.5,210C 356.119,209.764 357.119,208.931 357.5,207.5 Z"/></g>
<g><path style="opacity:0.149" fill="#0a0a0a" d="M 335.5,205.5 C 334.469,206.249 333.302,206.915 332,207.5C 331.53,208.577 331.697,209.577 332.5,210.5C 330.656,209.796 330.156,208.463 331,206.5C 332.356,205.62 333.856,205.286 335.5,205.5 Z"/></g>
<g><path style="opacity:0.016" fill="#0f0f0f" d="M 291.5,212.5 C 292.531,211.751 293.698,211.085 295,210.5C 295.617,209.551 295.451,208.718 294.5,208C 286.07,205.912 277.737,206.245 269.5,209C 270.571,209.852 271.571,210.685 272.5,211.5C 270.365,211.853 269.032,211.02 268.5,209C 269.093,207.118 270.427,206.118 272.5,206C 279.167,205.333 285.833,205.333 292.5,206C 299.228,209.065 298.894,211.232 291.5,212.5 Z"/></g>
<g><path style="opacity:0.812" fill="#1f1f1f" d="M 491.5,199.5 C 492.913,202.382 493.579,205.549 493.5,209C 493.494,211.033 493.161,212.866 492.5,214.5C 492.497,209.473 492.164,204.473 491.5,199.5 Z"/></g>
<g><path style="opacity:0.048" fill="#010101" d="M 339.5,205.5 C 344.579,204.174 349.579,204.507 354.5,206.5C 349.518,205.947 344.518,205.613 339.5,205.5 Z"/></g>
<g><path style="opacity:0.098" fill="#101010" d="M 312.5,165.5 C 310.802,172.747 310.302,180.08 311,187.5C 311.583,189.002 312.416,190.335 313.5,191.5C 314.521,190.099 315.521,188.765 316.5,187.5C 315.232,194.894 313.065,195.228 310,188.5C 309.314,181.125 309.647,173.792 311,166.5C 311.383,165.944 311.883,165.611 312.5,165.5 Z"/></g>
<g><path style="opacity:0.106" fill="#070707" d="M 338.5,179.5 C 333.625,184.208 329.292,189.375 325.5,195C 326,195.5 326.5,196 327,196.5C 333.655,192.01 339.488,186.676 344.5,180.5C 341.166,188.667 335.332,194.333 327,197.5C 323.995,196.114 323.662,194.114 326,191.5C 329.095,186.236 333.262,182.236 338.5,179.5 Z"/></g>
<g><path style="opacity:0.518" fill="#0a0a0a" d="M 287.5,178.5 C 292.349,180.836 296.516,184.169 300,188.5C 301.908,191.206 302.741,194.206 302.5,197.5C 294.489,195.497 288.489,190.831 284.5,183.5C 289.263,188.762 294.763,193.096 301,196.5C 301.257,193.983 300.59,191.65 299,189.5C 295.271,185.602 291.438,181.935 287.5,178.5 Z"/></g>
<g><path style="opacity:0.114" fill="#070707" d="M 341.5,177.5 C 341.027,178.906 340.027,179.573 338.5,179.5C 338.973,178.094 339.973,177.427 341.5,177.5 Z"/></g>
<g><path style="opacity:0.106" fill="#060606" d="M 204.5,162.5 C 216.505,162.333 228.505,162.5 240.5,163C 246.226,163.677 251.893,164.677 257.5,166C 259.223,166.523 260.556,167.523 261.5,169C 264.082,176.571 267.916,183.404 273,189.5C 273.667,190.5 273.667,191.5 273,192.5C 263.799,196.126 254.299,198.293 244.5,199C 230.332,191.663 218.166,181.83 208,169.5C 206.121,167.473 204.954,165.14 204.5,162.5 Z M 211.5,163.5 C 210.391,164.29 209.058,164.79 207.5,165C 218.469,179.378 231.969,190.544 248,198.5C 255.339,195.415 262.839,192.749 270.5,190.5C 267.079,184.658 263.912,178.658 261,172.5C 259.833,170 258,168.167 255.5,167C 240.898,165.028 226.232,163.862 211.5,163.5 Z"/></g>
<g><path style="opacity:0.047" fill="#060606" d="M 282.5,176.5 C 282.629,178.216 282.962,179.883 283.5,181.5C 281.403,180.121 281.07,178.455 282.5,176.5 Z"/></g>
<g><path style="opacity:0.106" fill="#060606" d="M 491.5,199.5 C 492.164,204.473 492.497,209.473 492.5,214.5C 490.784,221.756 487.117,227.923 481.5,233C 469.685,241.99 456.518,248.157 442,251.5C 441.167,251.333 440.333,251.167 439.5,251C 432.904,242.4 425.57,234.4 417.5,227C 409.953,220.613 402.287,214.447 394.5,208.5C 410.4,197.769 424.233,184.769 436,169.5C 437.497,167.323 439.497,165.99 442,165.5C 459.656,169.159 474.656,177.492 487,190.5C 489.547,192.973 491.047,195.973 491.5,199.5 Z M 441.5,166.5 C 429.107,182.894 414.44,196.894 397.5,208.5C 409.467,217.093 420.633,226.76 431,237.5C 433.742,242.909 437.742,246.909 443,249.5C 457.43,246.035 470.264,239.535 481.5,230C 494.577,213.506 493.244,198.173 477.5,184C 466.699,175.767 454.699,169.933 441.5,166.5 Z"/></g>
<g><path style="opacity:0.106" fill="#070707" d="M 183.5,165.5 C 185.308,165.491 186.975,165.991 188.5,167C 201.098,183.101 215.765,196.934 232.5,208.5C 216.062,221.104 201.062,235.271 187.5,251C 181.278,250.932 175.278,249.599 169.5,247C 160.669,242.755 152.336,237.755 144.5,232C 130.765,217.533 130.099,202.533 142.5,187C 154.861,177.155 168.527,169.988 183.5,165.5 Z M 182.5,167.5 C 174.893,170.543 167.226,173.71 159.5,177C 156.443,179.723 153.11,182.056 149.5,184C 132.563,198.134 131.229,213.467 145.5,230C 156.831,239.666 169.831,246.166 184.5,249.5C 187.406,248.103 189.906,246.103 192,243.5C 203.066,230.266 215.566,218.6 229.5,208.5C 213.126,197.296 198.792,183.796 186.5,168C 185.207,167.51 183.873,167.343 182.5,167.5 Z"/></g>
<g><path style="opacity:0.031" fill="#030303" d="M 314.5,165.5 C 315.117,165.611 315.617,165.944 316,166.5C 317.465,172.969 317.632,179.302 316.5,185.5C 316.613,178.745 315.947,172.078 314.5,165.5 Z"/></g>
<g><path style="opacity:0.103" fill="#060606" d="M 387.5,162.5 C 398.838,162.333 410.172,162.5 421.5,163C 422.517,164.049 422.684,165.216 422,166.5C 410.92,179.918 397.753,190.751 382.5,199C 380.167,199.667 377.833,199.667 375.5,199C 368.442,196.236 361.109,194.402 353.5,193.5C 354.572,188.69 356.738,184.357 360,180.5C 361.725,177.326 363.058,173.993 364,170.5C 365.167,169.333 366.333,168.167 367.5,167C 374.299,165.464 380.965,163.964 387.5,162.5 Z M 403.5,163.5 C 395.995,164.423 388.328,165.256 380.5,166C 376.332,166.375 372.332,167.375 368.5,169C 364.419,176.498 360.085,183.831 355.5,191C 363.771,192.636 371.771,195.136 379.5,198.5C 395.394,190.111 409.061,178.944 420.5,165C 414.899,163.783 409.232,163.283 403.5,163.5 Z"/></g>
<g><path style="opacity:0.092" fill="#070606" d="M 267.5,99.5 C 283.423,110.273 295.923,124.273 305,141.5C 302.749,150.326 300.249,159.159 297.5,168C 294.983,168.257 292.65,167.59 290.5,166C 284.249,162.292 278.083,158.459 272,154.5C 266.73,136.43 265.23,118.097 267.5,99.5 Z M 269.5,102.5 C 268.38,116.845 268.88,131.178 271,145.5C 271.299,150.406 273.466,154.239 277.5,157C 283.896,159.868 290.23,162.702 296.5,165.5C 298.425,157.352 300.591,149.352 303,141.5C 294.155,126.49 282.988,113.49 269.5,102.5 Z"/></g>
<g><path style="opacity:0.099" fill="#060606" d="M 355.5,100.5 C 356.833,100.5 358.167,100.5 359.5,100.5C 360.652,117.983 359.485,135.317 356,152.5C 355.293,154.081 354.46,155.581 353.5,157C 345.763,160.412 338.263,164.246 331,168.5C 330.055,168.095 329.388,167.428 329,166.5C 327.401,159.703 325.401,153.036 323,146.5C 322.538,141.396 323.872,136.729 327,132.5C 334.91,120.423 344.41,109.757 355.5,100.5 Z M 355.5,103.5 C 342.034,114.798 331.367,128.298 323.5,144C 327.016,151.075 330.016,158.241 332.5,165.5C 338.554,161.806 344.888,158.639 351.5,156C 352.701,155.097 353.535,153.931 354,152.5C 357.084,136.994 358.417,121.327 358,105.5C 357.583,104.244 356.75,103.577 355.5,103.5 Z"/></g>
<g><path style="opacity:0.112" fill="#070707" d="M 306.5,28.5 C 313.031,27.9885 319.364,28.8218 325.5,31C 331.258,34.7538 336.425,39.2538 341,44.5C 348.61,55.3926 353.776,67.3926 356.5,80.5C 356.333,81.5 356.167,82.5 356,83.5C 347.348,90.1529 339.348,97.4862 332,105.5C 325.992,113.005 319.825,120.338 313.5,127.5C 303.658,114.677 292.991,102.511 281.5,91C 276.665,88.6637 272.998,85.1637 270.5,80.5C 272.862,68.1099 277.695,56.7766 285,46.5C 290.577,38.4083 297.743,32.4083 306.5,28.5 Z M 309.5,30.5 C 304.482,32.1782 299.815,34.6782 295.5,38C 283.412,49.5033 275.746,63.5033 272.5,80C 280.238,88.067 288.405,95.9003 297,103.5C 302.721,110.381 308.221,117.381 313.5,124.5C 325.582,108.25 339.582,93.7497 355.5,81C 352.611,74.3368 350.111,67.5035 348,60.5C 345.458,54.6347 342.125,49.3014 338,44.5C 330.776,35.1377 321.276,30.4711 309.5,30.5 Z"/></g>
<g><path style="opacity:0.113" fill="#060606" d="M 403.5,73.5 C 438.568,67.9012 453.235,82.5679 447.5,117.5C 444.953,128.757 440.62,139.257 434.5,149C 413.093,147.96 391.759,148.793 370.5,151.5C 372.07,139.081 373.07,126.581 373.5,114C 372.48,105.153 372.48,96.32 373.5,87.5C 382.949,81.4706 392.949,76.8039 403.5,73.5 Z M 411.5,75.5 C 398.302,77.2912 386.136,81.9578 375,89.5C 375.913,109.522 375.413,129.522 373.5,149.5C 385.101,147.885 396.768,146.885 408.5,146.5C 417.072,147.421 425.572,147.421 434,146.5C 441.504,133.489 445.671,119.489 446.5,104.5C 445.826,81.9569 434.159,72.2902 411.5,75.5 Z"/></g>
<g><path style="opacity:0.107" fill="#060606" d="M 196.5,73.5 C 208.736,72.634 220.736,73.8006 232.5,77C 239.5,80.5 246.5,84 253.5,87.5C 252.952,108.856 253.618,130.19 255.5,151.5C 248.18,150.672 240.847,149.839 233.5,149C 219.807,148.848 206.14,148.681 192.5,148.5C 182.395,132.969 177.562,115.969 178,97.5C 180.58,86.6456 186.747,78.6456 196.5,73.5 Z M 202.5,75.5 C 190.208,77.6272 183.041,84.9606 181,97.5C 180.286,114.644 184.286,130.644 193,145.5C 194.996,147.059 197.329,147.726 200,147.5C 217.94,145.781 235.773,146.448 253.5,149.5C 250.588,129.752 250.088,109.752 252,89.5C 237.023,79.6014 220.523,74.9348 202.5,75.5 Z"/></g>
<g><path style="opacity:0.117" fill="#070707" d="M 178.5,318.5 C 178.425,312.471 178.759,306.471 179.5,300.5C 182.303,289.059 186.637,278.226 192.5,268C 201.164,267.737 209.831,267.904 218.5,268.5C 230.884,268.041 243.218,267.041 255.5,265.5C 254.144,277.12 253.144,288.787 252.5,300.5C 253.02,308.179 253.687,315.846 254.5,323.5C 254.167,325.5 253.833,327.5 253.5,329.5C 236.905,339.983 218.905,344.816 199.5,344C 187.207,339.872 180.207,331.372 178.5,318.5 Z M 250.5,267.5 C 233.733,270.44 216.733,271.107 199.5,269.5C 196.989,269.288 194.822,269.955 193,271.5C 185.707,284.213 181.54,297.88 180.5,312.5C 179.623,325.444 184.956,334.611 196.5,340C 216.567,342.853 235.067,338.686 252,327.5C 249.635,307.456 250.135,287.456 253.5,267.5C 252.5,267.5 251.5,267.5 250.5,267.5 Z"/></g>
<g><path style="opacity:0.105" fill="#070707" d="M 370.5,265.5 C 378.845,266.149 387.178,266.983 395.5,268C 408.183,268.459 420.85,268.459 433.5,268C 444.338,283.531 449.505,300.698 449,319.5C 445.322,335.673 435.155,344.007 418.5,344.5C 401.808,343.437 386.642,338.103 373,328.5C 372.833,326.5 372.667,324.5 372.5,322.5C 374.128,303.366 373.461,284.366 370.5,265.5 Z M 373.5,267.5 C 375.444,287.484 375.944,307.484 375,327.5C 385.794,334.644 397.628,339.144 410.5,341C 433.619,344.866 445.619,335.199 446.5,312C 445.415,297.078 440.915,283.244 433,270.5C 420.587,270.464 408.087,270.297 395.5,270C 388.09,269.373 380.757,268.54 373.5,267.5 Z"/></g>
<g><path style="opacity:0.824" fill="#1f1f1f" d="M 179.5,300.5 C 178.759,306.471 178.425,312.471 178.5,318.5C 177.837,316.359 177.503,314.025 177.5,311.5C 177.363,307.553 178.03,303.886 179.5,300.5 Z"/></g>
<g><path style="opacity:0.107" fill="#060606" d="M 312.5,290.5 C 314.017,290.511 315.184,291.177 316,292.5C 326.085,307.253 338.252,320.086 352.5,331C 354.448,332.439 355.781,334.272 356.5,336.5C 352.527,352.445 345.361,366.778 335,379.5C 319.063,392.321 304.063,391.321 290,376.5C 280.436,364.537 273.936,351.037 270.5,336C 286.363,322.633 300.363,307.467 312.5,290.5 Z M 312.5,293.5 C 306.931,301.909 300.765,309.909 294,317.5C 286.77,324.07 279.603,330.57 272.5,337C 275.976,351.453 282.476,364.287 292,375.5C 300.911,385.918 311.744,388.751 324.5,384C 340.528,372.3 350.528,356.633 354.5,337C 345.095,328.598 335.928,319.765 327,310.5C 323.667,305.833 320.333,301.167 317,296.5C 315.871,294.859 314.371,293.859 312.5,293.5 Z"/></g>
<g><path style="opacity:0.207" fill="#0c0c0c" d="M 150.5,574.5 C 150.831,596.673 150.497,618.673 149.5,640.5C 149.5,613.833 149.5,587.167 149.5,560.5C 185.835,560.667 222.168,560.5 258.5,560C 273.326,558.339 285.492,551.839 295,540.5C 307.888,525.084 311.055,507.75 304.5,488.5C 293.149,463.978 273.816,452.478 246.5,454C 228.5,453.833 210.5,453.667 192.5,453.5C 172.135,453.377 151.802,453.877 131.5,455C 126.465,458.013 125.298,462.18 128,467.5C 129.171,468.893 130.671,469.727 132.5,470C 177.188,470.054 221.854,470.721 266.5,472C 290.075,484.059 296.575,502.225 286,526.5C 282.833,531 279,534.833 274.5,538C 272.112,539.861 269.446,541.194 266.5,542C 225.194,543.454 183.86,543.954 142.5,543.5C 142.5,543.167 142.5,542.833 142.5,542.5C 181.998,541.667 221.665,541.167 261.5,541C 282.621,534.538 291.454,520.371 288,498.5C 284.013,487.177 276.513,479.01 265.5,474C 221.866,472.699 178.199,472.032 134.5,472C 132.122,471.489 129.788,470.822 127.5,470C 123.223,465.801 122.723,461.301 126,456.5C 127.8,454.683 129.966,453.516 132.5,453C 177.192,452.043 221.859,452.376 266.5,454C 286.919,458.416 300.419,470.583 307,490.5C 313.695,521.606 302.862,544.106 274.5,558C 269.9,559.317 265.234,560.317 260.5,561C 224.167,561.333 187.833,561.667 151.5,562C 150.536,566.066 150.203,570.233 150.5,574.5 Z"/></g>
<g><path style="opacity:1" fill="#303030" d="M 149.5,640.5 C 146.746,649.696 141.579,651.363 134,645.5C 133.667,643.833 133.333,642.167 133,640.5C 132.333,610.167 132.333,579.833 133,549.5C 134.812,545.392 137.979,543.392 142.5,543.5C 183.86,543.954 225.194,543.454 266.5,542C 269.446,541.194 272.112,539.861 274.5,538C 279,534.833 282.833,531 286,526.5C 296.575,502.225 290.075,484.059 266.5,472C 221.854,470.721 177.188,470.054 132.5,470C 130.671,469.727 129.171,468.893 128,467.5C 125.298,462.18 126.465,458.013 131.5,455C 151.802,453.877 172.135,453.377 192.5,453.5C 210.5,453.667 228.5,453.833 246.5,454C 273.816,452.478 293.149,463.978 304.5,488.5C 311.055,507.75 307.888,525.084 295,540.5C 285.492,551.839 273.326,558.339 258.5,560C 222.168,560.5 185.835,560.667 149.5,560.5C 149.5,587.167 149.5,613.833 149.5,640.5 Z"/></g>
<g><path style="opacity:0.137" fill="#060606" d="M 142.5,542.5 C 142.5,542.833 142.5,543.167 142.5,543.5C 137.979,543.392 134.812,545.392 133,549.5C 132.333,579.833 132.333,610.167 133,640.5C 133.333,642.167 133.667,643.833 134,645.5C 141.579,651.363 146.746,649.696 149.5,640.5C 150.497,618.673 150.831,596.673 150.5,574.5C 151.167,585.495 151.5,596.662 151.5,608C 151.627,620.553 151.127,633.053 150,645.5C 146.068,651.774 140.901,652.94 134.5,649C 133.299,648.097 132.465,646.931 132,645.5C 131.333,612.833 131.333,580.167 132,547.5C 134.348,543.651 137.848,541.984 142.5,542.5 Z"/></g>
<g><path style="opacity:0.109" fill="#0d0d0d" d="M 365.5,452.5 C 413.501,452.333 461.501,452.5 509.5,453C 517.023,457.115 518.357,462.782 513.5,470C 511.285,471.044 508.952,471.71 506.5,472C 459.5,472.333 412.5,472.667 365.5,473C 358.763,474.736 354.263,478.903 352,485.5C 351.333,529.5 351.333,573.5 352,617.5C 354.874,625.702 360.707,630.202 369.5,631C 416.5,631.333 463.5,631.667 510.5,632C 517.667,637.011 518.334,642.844 512.5,649.5C 510.885,650.154 509.218,650.654 507.5,651C 460.833,651.667 414.167,651.667 367.5,651C 350.024,649.178 338.524,640.012 333,623.5C 332.667,621.167 332.333,618.833 332,616.5C 331.036,570.805 331.369,525.138 333,479.5C 338.577,464.083 349.41,455.083 365.5,452.5 Z"/></g>
<g><path style="opacity:1" fill="#303030" d="M 372.5,453.5 C 416.501,453.333 460.501,453.5 504.5,454C 510.345,454.012 514.012,456.845 515.5,462.5C 514.079,465.535 512.079,468.035 509.5,470C 462.167,470.333 414.833,470.667 367.5,471C 356.596,472.273 350.763,478.44 350,489.5C 349.333,531.167 349.333,572.833 350,614.5C 350.698,624.448 355.865,630.281 365.5,632C 412.833,632.333 460.167,632.667 507.5,633C 515.463,636.521 516.796,641.521 511.5,648C 463.546,649.647 415.546,649.981 367.5,649C 349.897,647.064 338.731,637.564 334,620.5C 333.333,574.167 333.333,527.833 334,481.5C 337.098,472.253 342.598,464.919 350.5,459.5C 357.566,456.094 364.899,454.094 372.5,453.5 Z"/></g>
<g><path style="opacity:0.128" fill="#090909" d="M 77.5,717.5 C 89.9937,717.021 102.327,717.521 114.5,719C 113.833,722 113.167,725 112.5,728C 104.173,728.5 95.84,728.666 87.5,728.5C 87.5,731.167 87.5,733.833 87.5,736.5C 95.1739,736.334 102.841,736.5 110.5,737C 111.451,740.057 111.784,743.223 111.5,746.5C 103.826,746.334 96.1594,746.5 88.5,747C 87.5562,749.719 87.2229,752.552 87.5,755.5C 95.1739,755.334 102.841,755.5 110.5,756C 112.044,756.29 113.377,756.956 114.5,758C 113.755,760.571 113.421,763.071 113.5,765.5C 100.938,766.821 88.4376,766.821 76,765.5C 75.5591,752.704 75.3924,739.871 75.5,727C 75.3312,723.599 75.9979,720.432 77.5,717.5 Z"/></g>
<g><path style="opacity:1" fill="#303030" d="M 436.5,746.5 C 434.65,750.524 432.483,754.524 430,758.5C 416.368,769.831 403.368,769.165 391,756.5C 383.145,740.581 386.645,727.914 401.5,718.5C 411.381,716.309 420.381,718.143 428.5,724C 433.839,730.507 436.505,738.007 436.5,746.5 Z M 405.5,727.5 C 422.851,727.188 428.518,735.188 422.5,751.5C 412.759,759.182 404.592,757.849 398,747.5C 396.083,742.722 396.417,738.055 399,733.5C 401.363,731.634 403.53,729.634 405.5,727.5 Z"/></g>
<g><path style="opacity:0.099" fill="#050505" d="M 489.5,717.5 C 493.167,717.5 496.833,717.5 500.5,717.5C 500.5,733.833 500.5,750.167 500.5,766.5C 496.833,766.5 493.167,766.5 489.5,766.5C 489.5,750.167 489.5,733.833 489.5,717.5 Z"/></g>
<g><path style="opacity:0.071" fill="#0b0b0b" d="M 35.5,717.5 C 45.5407,717.244 55.5407,717.744 65.5,719C 72.1448,724.627 74.3115,731.793 72,740.5C 70.1667,745 67,748.167 62.5,750C 57.2497,750.193 52.083,750.693 47,751.5C 46.5007,756.489 46.3341,761.489 46.5,766.5C 42.5,766.5 38.5,766.5 34.5,766.5C 34.1822,750.089 34.5155,733.756 35.5,717.5 Z M 47.5,727.5 C 52.4466,726.628 56.6132,727.961 60,731.5C 60.782,734.257 60.282,736.757 58.5,739C 54.6049,740.266 50.6049,740.766 46.5,740.5C 46.2307,736.069 46.564,731.735 47.5,727.5 Z"/></g>
<g><path style="opacity:1" fill="#303030" d="M 37.5,718.5 C 45.8861,718.213 54.2195,718.713 62.5,720C 72.766,727.19 74.0994,735.856 66.5,746C 65.1667,746.667 63.8333,747.333 62.5,748C 57.5,748.333 52.5,748.667 47.5,749C 46.5838,749.374 45.7504,749.874 45,750.5C 44.6667,755.167 44.3333,759.833 44,764.5C 41.6667,765.833 39.3333,765.833 37,764.5C 36.1839,749.092 36.3505,733.759 37.5,718.5 Z M 47.5,727.5 C 46.564,731.735 46.2307,736.069 46.5,740.5C 50.6049,740.766 54.6049,740.266 58.5,739C 60.282,736.757 60.782,734.257 60,731.5C 56.6132,727.961 52.4466,726.628 47.5,727.5 Z"/></g>
<g><path style="opacity:1" fill="#303030" d="M 78.5,718.5 C 89.748,718.179 100.915,718.513 112,719.5C 112.687,721.568 112.52,723.568 111.5,725.5C 103.521,726.332 95.5207,726.832 87.5,727C 86.5399,730.73 86.2065,734.563 86.5,738.5C 94.1739,738.334 101.841,738.5 109.5,739C 109.986,741.027 109.986,743.193 109.5,745.5C 101.833,745.5 94.1667,745.5 86.5,745.5C 85.3749,749.521 85.3749,753.521 86.5,757.5C 94.5069,757.334 102.507,757.5 110.5,758C 113.432,761.146 113.098,763.646 109.5,765.5C 99.0796,765.764 88.5796,765.431 78,764.5C 77.1839,749.092 77.3505,733.759 78.5,718.5 Z"/></g>
<g><path style="opacity:1" fill="#303130" d="M 491.5,718.5 C 494.119,718.232 496.619,718.565 499,719.5C 499.667,734.5 499.667,749.5 499,764.5C 496.281,765.444 493.448,765.777 490.5,765.5C 490.183,749.756 490.516,734.089 491.5,718.5 Z"/></g>
<g><path style="opacity:0.172" fill="#060606" d="M 214.5,717.5 C 218.167,717.5 221.833,717.5 225.5,717.5C 225.5,733.833 225.5,750.167 225.5,766.5C 221.833,766.5 218.167,766.5 214.5,766.5C 214.5,750.167 214.5,733.833 214.5,717.5 Z"/></g>
<g><path style="opacity:1" fill="#303030" d="M 215.5,718.5 C 218.448,718.223 221.281,718.556 224,719.5C 224.5,734.83 224.667,750.163 224.5,765.5C 221.751,765.726 219.084,765.393 216.5,764.5C 215.501,749.181 215.167,733.848 215.5,718.5 Z"/></g>
<g><path style="opacity:0.052" fill="#080808" d="M 436.5,746.5 C 436.505,738.007 433.839,730.507 428.5,724C 420.381,718.143 411.381,716.309 401.5,718.5C 422.864,712.538 434.864,720.538 437.5,742.5C 437.489,744.045 437.156,745.378 436.5,746.5 Z"/></g>
<g><path style="opacity:0.027" fill="#0b0b0b" d="M 407.5,725.5 C 423.338,725.873 429.505,733.873 426,749.5C 422.187,755.89 416.52,758.89 409,758.5C 396.553,754.537 392.553,746.203 397,733.5C 399.855,729.789 403.355,727.123 407.5,725.5 Z M 405.5,727.5 C 403.53,729.634 401.363,731.634 399,733.5C 396.417,738.055 396.083,742.722 398,747.5C 404.592,757.849 412.759,759.182 422.5,751.5C 428.518,735.188 422.851,727.188 405.5,727.5 Z"/></g>
<g><path style="opacity:0.041" fill="#0a0a0a" d="M 575.5,716.5 C 583.461,715.867 591.128,717.034 598.5,720C 599.977,722.445 601.81,724.612 604,726.5C 604.953,729.432 605.453,732.432 605.5,735.5C 601.445,735.824 597.445,735.491 593.5,734.5C 588.707,726.465 582.04,724.632 573.5,729C 566.931,735.945 565.764,743.778 570,752.5C 579.135,759.791 587.302,758.791 594.5,749.5C 594.291,748.914 593.957,748.414 593.5,748C 588.833,747.667 584.167,747.333 579.5,747C 578.167,744.667 578.167,742.333 579.5,740C 588.494,739.5 597.494,739.334 606.5,739.5C 606.5,748.5 606.5,757.5 606.5,766.5C 602.833,766.5 599.167,766.5 595.5,766.5C 595.649,765.448 595.483,764.448 595,763.5C 586.142,768.18 576.976,768.68 567.5,765C 556.577,756.777 553.077,745.944 557,732.5C 560.11,723.542 566.277,718.209 575.5,716.5 Z"/></g>
<g><path style="opacity:1" fill="#303030" d="M 579.5,717.5 C 592.355,716.079 600.689,721.412 604.5,733.5C 598.787,735.957 594.787,734.457 592.5,729C 585.654,724.521 578.654,724.354 571.5,728.5C 564.982,735.645 563.815,743.645 568,752.5C 574.092,758.639 581.259,760.139 589.5,757C 593.761,755.102 595.928,751.936 596,747.5C 590.928,746.529 585.762,746.195 580.5,746.5C 580.261,744.533 580.594,742.699 581.5,741C 589.159,740.5 596.826,740.334 604.5,740.5C 604.5,748.833 604.5,757.167 604.5,765.5C 602.143,765.663 599.81,765.497 597.5,765C 596.91,763.491 596.244,761.991 595.5,760.5C 582.821,769.332 571.321,767.998 561,756.5C 556.099,746.006 556.433,735.672 562,725.5C 566.915,720.594 572.748,717.927 579.5,717.5 Z"/></g>
<g><path style="opacity:0.498" fill="#090909" d="M 233.5,717.5 C 237.24,717.241 240.906,717.574 244.5,718.5C 250.805,727.971 257.305,737.305 264,746.5C 264.333,737.167 264.667,727.833 265,718.5C 268.394,717.544 271.894,717.211 275.5,717.5C 275.667,733.837 275.5,750.17 275,766.5C 274.275,767.059 273.442,767.392 272.5,767.5C 269.855,766.892 267.188,766.392 264.5,766C 257.667,756.5 250.833,747 244,737.5C 243.667,747.167 243.333,756.833 243,766.5C 239.622,766.868 236.122,766.868 232.5,766.5C 232.182,750.089 232.516,733.756 233.5,717.5 Z"/></g>
<g><path style="opacity:1" fill="#303030" d="M 235.5,718.5 C 238.32,718.248 240.986,718.748 243.5,720C 250.124,729.413 256.624,738.913 263,748.5C 264.011,749.337 265.178,749.67 266.5,749.5C 266.181,739.251 266.514,729.084 267.5,719C 270.053,718.149 272.386,718.482 274.5,720C 274.631,734.628 274.465,749.461 274,764.5C 271.162,765.675 268.329,765.509 265.5,764C 258.631,755.097 252.131,745.93 246,736.5C 245,735.833 244,735.167 243,734.5C 242.667,744.5 242.333,754.5 242,764.5C 239.534,765.788 237.034,765.788 234.5,764.5C 234.167,757 233.833,749.5 233.5,742C 233.533,733.933 234.199,726.1 235.5,718.5 Z"/></g>
<g><path style="opacity:0.212" fill="#080808" d="M 540.5,718.5 C 543.565,717.182 546.731,717.182 550,718.5C 550.5,734.497 550.667,750.497 550.5,766.5C 546.818,766.665 543.152,766.499 539.5,766C 533.06,756.557 526.227,747.391 519,738.5C 518.731,747.72 518.564,757.053 518.5,766.5C 514.833,766.5 511.167,766.5 507.5,766.5C 507.5,750.167 507.5,733.833 507.5,717.5C 511.571,717.234 515.571,717.567 519.5,718.5C 525.805,727.971 532.305,737.305 539,746.5C 539.17,736.991 539.67,727.658 540.5,718.5 Z"/></g>
<g><path style="opacity:1" fill="#303130" d="M 538.5,748.5 C 538.811,749.478 539.478,750.145 540.5,750.5C 541.499,739.854 541.832,729.187 541.5,718.5C 544.119,718.232 546.619,718.565 549,719.5C 549.667,734.5 549.667,749.5 549,764.5C 545.634,765.995 542.468,765.662 539.5,763.5C 533.238,753.577 526.238,744.244 518.5,735.5C 517.668,745.149 517.168,754.816 517,764.5C 514.333,765.833 511.667,765.833 509,764.5C 508.5,749.17 508.333,733.837 508.5,718.5C 511.518,718.335 514.518,718.502 517.5,719C 524.719,728.712 531.719,738.546 538.5,748.5 Z"/></g>
<g><path style="opacity:0.525" fill="#171717" d="M 540.5,718.5 C 540.833,718.5 541.167,718.5 541.5,718.5C 541.832,729.187 541.499,739.854 540.5,750.5C 539.478,750.145 538.811,749.478 538.5,748.5C 540.474,738.889 541.141,728.889 540.5,718.5 Z"/></g>
<g><path style="opacity:0.351" fill="#0e0e0e" d="M 45.5,726.5 C 50.6278,726.112 55.6278,726.612 60.5,728C 62.8206,731.75 62.9873,735.584 61,739.5C 56.1826,742.462 51.0159,743.129 45.5,741.5C 44.2214,736.449 44.2214,731.449 45.5,726.5 Z M 47.5,727.5 C 46.564,731.735 46.2307,736.069 46.5,740.5C 50.6049,740.766 54.6049,740.266 58.5,739C 60.282,736.757 60.782,734.257 60,731.5C 56.6132,727.961 52.4466,726.628 47.5,727.5 Z"/></g>
<g><path style="opacity:0.518" fill="#090909" d="M 117.5,717.5 C 121.182,717.335 124.848,717.501 128.5,718C 135.333,727.5 142.167,737 149,746.5C 149.5,736.839 149.666,727.172 149.5,717.5C 152.909,717.249 156.242,717.583 159.5,718.5C 160.499,734.486 160.833,750.486 160.5,766.5C 156.486,766.666 152.486,766.499 148.5,766C 141.631,757.097 135.131,747.93 129,738.5C 128.667,747.5 128.333,756.5 128,765.5C 127.311,766.357 126.478,767.023 125.5,767.5C 122.579,766.593 119.579,766.26 116.5,766.5C 116.182,750.089 116.516,733.756 117.5,717.5 Z"/></g>
<g><path style="opacity:0.999" fill="#303030" d="M 119.5,718.5 C 122.685,718.02 125.519,718.686 128,720.5C 134.617,730.942 141.784,740.942 149.5,750.5C 150.287,749.758 150.953,748.925 151.5,748C 150.689,738.48 150.522,728.98 151,719.5C 153.333,718.167 155.667,718.167 158,719.5C 159.119,727.427 159.619,735.427 159.5,743.5C 159.167,750.5 158.833,757.5 158.5,764.5C 155.183,765.805 152.016,765.472 149,763.5C 142,753.5 135,743.5 128,733.5C 126.691,743.674 126.024,754.008 126,764.5C 123.667,765.833 121.333,765.833 119,764.5C 118.184,749.092 118.351,733.759 119.5,718.5 Z"/></g>
<g><path style="opacity:0.19" fill="#0a0a0a" d="M 302.5,716.5 C 310.388,715.595 317.722,717.095 324.5,721C 328.836,724.82 330.836,729.654 330.5,735.5C 326.818,735.665 323.152,735.499 319.5,735C 313.896,726.1 306.563,724.433 297.5,730C 291.637,736.997 290.97,744.497 295.5,752.5C 304.494,759.834 312.494,758.834 319.5,749.5C 319.291,748.914 318.957,748.414 318.5,748C 313.511,747.501 308.511,747.334 303.5,747.5C 303.5,744.833 303.5,742.167 303.5,739.5C 312.833,739.5 322.167,739.5 331.5,739.5C 331.832,748.525 331.498,757.525 330.5,766.5C 327.285,766.82 323.952,766.82 320.5,766.5C 320.649,765.448 320.483,764.448 320,763.5C 311.121,768.225 301.955,768.725 292.5,765C 284.434,759.335 280.434,751.502 280.5,741.5C 281.178,727.064 288.511,718.731 302.5,716.5 Z"/></g>
<g><path style="opacity:1" fill="#303030" d="M 298.5,718.5 C 305.206,718.243 311.872,718.576 318.5,719.5C 324.154,722.326 327.821,726.826 329.5,733C 327.045,734.54 324.379,734.874 321.5,734C 315.005,725.058 306.672,723.058 296.5,728C 289.278,736.452 288.611,745.452 294.5,755C 301.104,758.869 308.104,759.535 315.5,757C 318.206,754.629 320.539,751.963 322.5,749C 321.833,748.333 321.167,747.667 320.5,747C 315.511,746.501 310.511,746.334 305.5,746.5C 305.261,744.533 305.594,742.699 306.5,741C 314.167,740.333 321.833,740.333 329.5,741C 330.758,749.124 330.758,757.29 329.5,765.5C 327.167,765.5 324.833,765.5 322.5,765.5C 322.884,763.335 322.217,761.668 320.5,760.5C 307.851,769.13 296.351,767.797 286,756.5C 281.672,747.037 281.672,737.37 286,727.5C 289.811,723.832 293.978,720.832 298.5,718.5 Z"/></g>
<g><path style="opacity:0.133" fill="#0a0a0a" d="M 401.5,718.5 C 386.645,727.914 383.145,740.581 391,756.5C 403.368,769.165 416.368,769.831 430,758.5C 432.483,754.524 434.65,750.524 436.5,746.5C 435.537,755.634 430.87,762.134 422.5,766C 396.382,771.544 384.215,761.044 386,734.5C 387.941,727.897 391.774,722.731 397.5,719C 398.793,718.51 400.127,718.343 401.5,718.5 Z"/></g>
<g><path style="opacity:0.095" fill="#090909" d="M 167.5,718.5 C 175.323,717.344 183.323,717.177 191.5,718C 198.91,718.736 204.077,722.569 207,729.5C 211.898,743.018 209.398,754.851 199.5,765C 188.578,767.22 177.578,767.72 166.5,766.5C 166.17,750.325 166.504,734.325 167.5,718.5 Z M 178.5,728.5 C 193.321,727.159 199.154,733.826 196,748.5C 194.42,752.216 191.587,754.383 187.5,755C 184.518,755.498 181.518,755.665 178.5,755.5C 178.5,746.5 178.5,737.5 178.5,728.5 Z"/></g>
<g><path style="opacity:0.718" fill="#252525" d="M 167.5,718.5 C 168.167,718.5 168.833,718.5 169.5,718.5C 168.517,733.755 168.183,749.089 168.5,764.5C 167.504,749.342 167.17,734.009 167.5,718.5 Z"/></g>
<g><path style="opacity:1" fill="#303030" d="M 169.5,718.5 C 176.175,718.334 182.842,718.5 189.5,719C 202.146,721.326 208.146,728.993 207.5,742C 207.783,750.431 204.783,757.431 198.5,763C 188.587,765.607 178.587,766.107 168.5,764.5C 168.183,749.089 168.517,733.755 169.5,718.5 Z M 178.5,728.5 C 178.5,737.5 178.5,746.5 178.5,755.5C 181.518,755.665 184.518,755.498 187.5,755C 191.587,754.383 194.42,752.216 196,748.5C 199.154,733.826 193.321,727.159 178.5,728.5 Z"/></g>
<g><path style="opacity:0.037" fill="#0c0c0c" d="M 177.5,726.5 C 194.524,724.176 201.357,731.51 198,748.5C 194.963,755.015 189.796,758.015 182.5,757.5C 180.571,757.46 178.738,757.127 177,756.5C 176.193,746.423 176.36,736.423 177.5,726.5 Z M 178.5,728.5 C 178.5,737.5 178.5,746.5 178.5,755.5C 181.518,755.665 184.518,755.498 187.5,755C 191.587,754.383 194.42,752.216 196,748.5C 199.154,733.826 193.321,727.159 178.5,728.5 Z"/></g>
<g><path style="opacity:0.066" fill="#0b0b0b" d="M 354.5,716.5 C 361.821,715.859 368.821,717.025 375.5,720C 380.768,724.636 383.435,730.469 383.5,737.5C 380.482,737.665 377.482,737.498 374.5,737C 372.289,733.777 369.622,730.777 366.5,728C 351.989,725.508 345.489,731.675 347,746.5C 351.535,756.789 358.701,759.289 368.5,754C 370.081,752.172 371.415,750.172 372.5,748C 376.152,747.501 379.818,747.335 383.5,747.5C 382.988,755.86 378.988,762.027 371.5,766C 359.314,769.954 348.814,767.454 340,758.5C 338.139,756.112 336.806,753.446 336,750.5C 333.667,739.85 335.834,730.35 342.5,722C 346.284,719.471 350.284,717.638 354.5,716.5 Z"/></g>
<g><path style="opacity:1" fill="#303030" d="M 352.5,718.5 C 357.844,718.334 363.177,718.501 368.5,719C 376.399,721.729 380.733,727.229 381.5,735.5C 376.648,736.723 373.481,735.056 372,730.5C 367.117,725.796 361.283,724.296 354.5,726C 343.884,732.97 341.718,742.137 348,753.5C 358.522,761.402 367.355,759.902 374.5,749C 377.303,748.245 379.97,748.578 382.5,750C 376.857,763.488 366.857,768.488 352.5,765C 335.815,756.105 331.981,743.272 341,726.5C 344.51,723.121 348.344,720.454 352.5,718.5 Z"/></g>
<g><path style="opacity:0.099" fill="#0a0a0a" d="M 441.5,717.5 C 449.84,717.334 458.173,717.5 466.5,718C 473.934,718.766 479.101,722.6 482,729.5C 484.996,738.901 484.662,748.235 481,757.5C 478.778,761.388 475.612,764.221 471.5,766C 461.497,767.391 451.497,767.557 441.5,766.5C 441.5,750.167 441.5,733.833 441.5,717.5 Z M 453.5,728.5 C 467.799,726.967 473.632,733.3 471,747.5C 469.971,751.946 467.138,754.446 462.5,755C 459.518,755.498 456.518,755.665 453.5,755.5C 453.5,746.5 453.5,737.5 453.5,728.5 Z"/></g>
<g><path style="opacity:1" fill="#303030" d="M 443.5,718.5 C 452.226,718.161 460.893,718.661 469.5,720C 477.156,723.325 481.323,729.159 482,737.5C 483.437,746.927 480.937,755.094 474.5,762C 471.754,763.75 468.754,764.75 465.5,765C 458.13,765.425 450.963,765.591 444,765.5C 443.5,765 443,764.5 442.5,764C 442.184,748.964 442.517,733.798 443.5,718.5 Z M 453.5,728.5 C 453.5,737.5 453.5,746.5 453.5,755.5C 456.518,755.665 459.518,755.498 462.5,755C 467.138,754.446 469.971,751.946 471,747.5C 473.632,733.3 467.799,726.967 453.5,728.5 Z"/></g>
<g><path style="opacity:0.056" fill="#0d0d0d" d="M 452.5,726.5 C 470.912,725.278 477.412,733.611 472,751.5C 466.364,757.256 459.698,758.923 452,756.5C 451.193,746.423 451.36,736.423 452.5,726.5 Z M 453.5,728.5 C 453.5,737.5 453.5,746.5 453.5,755.5C 456.518,755.665 459.518,755.498 462.5,755C 467.138,754.446 469.971,751.946 471,747.5C 473.632,733.3 467.799,726.967 453.5,728.5 Z"/></g>
</svg>
